{"title":"Eminem - Phenomenal (from Southpaw) 2015","uid":12518593,"size":171121496,"categoryP":"video","categoryS":"music_videos","magnet":"?xt=urn:btih:7029a9dc890ad323c2ce8a3a0860d06f6d475e74&amp;dn=Eminem+-+Phenomenal+%28from+Southpaw%29+2015&amp;tr=udp%3A%2F%2Ftracker.leechers-paradise.org%3A6969&amp;tr=udp%3A%2F%2Fzer0day.ch%3A1337&amp;tr=udp%3A%2F%2Fopen.demonii.com%3A1337&amp;tr=udp%3A%2F%2Ftracker.coppersurfer.tk%3A6969&amp;tr=udp%3A%2F%2Fexodus.desync.com%3A6969","seeders":0,"leechers":1,"uploader":"MeRaDil","files":1,"time":1443809500,"description":"EMINEM - PHENOMENAL\r\n\r\n \nhttp://gifyu.com/images/phenomenal.png\r\n \nhttp://gifyu.com/images/phenomenal-1.png\r\n \nhttp://gifyu.com/images/phenomenal-2.png\r\n\r\n\r\nMEDIA INFO\r\nGeneral\r\nEminem - Phenomenal\r\nFormat                                   : MPEG-4\r\nFormat profile                           : Base Media\r\nCodec ID                                 : isom\r\nFile size                                : 163 MiB\r\nDuration                                 : 7mn 21s\r\nOverall bit rate                         : 3 098 Kbps\r\nMusicVid name                            : Phenomenal\r\nAlbum                                    : OST.Southpaw\r\nPerformer                                : Eminem\r\nGenre                                    : Soundtrack/HipHop\r\nContentType                              : Music Video\r\nRecorded date                            : 2015\r\nMake                                     : MeRaDil\r\nRelease date                             : USA - july 3 - 2015\r\n \nhttps://thepiratebay.vg/user/MeRaDil\r\n\r\nVideo\r\nID                                       : 1\r\nFormat                                   : AVC\r\nFormat/Info                              : Advanced Video Codec\r\nFormat profile                           :   \r\nFormat settings, CABAC                   : Yes\r\nFormat settings, ReFrames                : 2 frames\r\nCodec ID                                 : avc1\r\nCodec ID/Info                            : Advanced Video Coding\r\nDuration                                 : 7mn 21s\r\nBit rate                                 : 2 835 Kbps\r\nWidth                                    : 1 920 pixels\r\nHeight                                   : 1 080 pixels\r\nDisplay aspect ratio                     : 16:9\r\nFrame rate mode                          : Variable\r\nFrame rate                               : 23.976 fps\r\nMinimum frame rate                       : 23.974 fps\r\nMaximum frame rate                       : 23.981 fps\r\nColor space                              : YUV\r\nChroma subsampling                       : 4:2:0\r\nBit depth                                : 8 bits\r\nScan type                                : Progressive\r\nBits/(Pixel*Frame)                       : 0.057\r\nStream size                              : 149 MiB (92%)\r\n\r\nAudio\r\nID                                       : 2\r\nFormat                                   : AAC\r\nFormat/Info                              : Advanced Audio Codec\r\nFormat profile                           : LC\r\nCodec ID                                 : 40\r\nDuration                                 : 7mn 21s\r\nBit rate mode                            : Constant\r\nBit rate                                 : 256 Kbps\r\nChannel(s)                               : 2 channels\r\nChannel positions                        : Front: L R\r\nSampling rate                            : 44.1 KHz\r\nCompression mode                         : Lossy\r\nStream size                              : 13.5 MiB (8%)\r\n\r\nEminem * HipHop/Soundtrack * Southpaw * Promo","torrent":{"xt":"urn:btih:7029a9dc890ad323c2ce8a3a0860d06f6d475e74","amp;dn":"Eminem+-+Phenomenal+%28from+Southpaw%29+2015","amp;tr":["udp%3A%2F%2Ftracker.leechers-paradise.org%3A6969","udp%3A%2F%2Fzer0day.ch%3A1337","udp%3A%2F%2Fopen.demonii.com%3A1337","udp%3A%2F%2Ftracker.coppersurfer.tk%3A6969","udp%3A%2F%2Fexodus.desync.com%3A6969"],"infoHash":"7029a9dc890ad323c2ce8a3a0860d06f6d475e74","infoHashBuffer":{"type":"Buffer","data":[112,41,169,220,137,10,211,35,194,206,138,58,8,96,208,111,109,71,94,116]},"announce":[],"urlList":[]}}